<?xml version="1.0" encoding="UTF-8"?>
<svg width="20px" height="20px" viewBox="0 0 20 20" version="1.1" xmlns="http://www.w3.org/2000/svg" xmlns:xlink="http://www.w3.org/1999/xlink">
    <!-- Generator: sketchtool 60.1 (101010) - https://sketch.com -->
    <title>CD97BDBB-3785-4312-B0A1-F4C02E266C7B</title>
    <desc>Created with sketchtool.</desc>
    <g id="Page-1" stroke="none" stroke-width="1" fill="none" fill-rule="evenodd">
        <g id="04.0---Edit-contact" transform="translate(-458.000000, -255.000000)">
            <g id="Input-/-Add-photo" transform="translate(430.000000, 207.000000)">
                <g id="Add-photo" transform="translate(26.000000, 46.000000)">
                    <polygon id="Path" points="0 0 24 0 24 24 0 24"></polygon>
                    <path d="M16.626,3.132 L9.29,10.466 L9.298,14.713 L13.536,14.706 L20.867,7.374 C21.613328,8.80164085 22.0021163,10.3890501 22,12 C22,17.523 17.523,22 12,22 C6.477,22 2,17.523 2,12 C2,6.477 6.477,2 12,2 C13.669,2 15.242,2.409 16.626,3.132 Z M20.486,2.101 L21.899,3.515 L12.707,12.707 L11.295,12.71 L11.293,11.293 L20.485,2.1 L20.486,2.101 Z" id="Shape" fill="#000000" fill-rule="nonzero"></path>
                </g>
            </g>
        </g>
    </g>
</svg>