<?xml version="1.0" encoding="UTF-8"?>
<svg width="14px" height="12px" viewBox="0 0 14 12" version="1.1" xmlns="http://www.w3.org/2000/svg" xmlns:xlink="http://www.w3.org/1999/xlink">
    <!-- Generator: sketchtool 60.1 (101010) - https://sketch.com -->
    <title>466F2C72-78E8-47E9-A0F3-827DB92EB9DD</title>
    <desc>Created with sketchtool.</desc>
    <g id="Page-1" stroke="none" stroke-width="1" fill="none" fill-rule="evenodd">
        <g id="02.0---Home" transform="translate(-151.000000, -381.000000)">
            <g id="Afonso" transform="translate(130.000000, 220.000000)">
                <g id="mail-line" transform="translate(20.000000, 159.000000)">
                    <polygon id="Path" points="0 0 16 0 16 16 0 16"></polygon>
                    <path d="M2,2 L14,2 C14.3681898,2 14.6666667,2.29847683 14.6666667,2.66666667 L14.6666667,13.3333333 C14.6666667,13.7015232 14.3681898,14 14,14 L2,14 C1.63181017,14 1.33333333,13.7015232 1.33333333,13.3333333 L1.33333333,2.66666667 C1.33333333,2.29847683 1.63181017,2 2,2 Z M13.3333333,4.82533333 L8.048,9.55866667 L2.66666667,4.81066667 L2.66666667,12.6666667 L13.3333333,12.6666667 L13.3333333,4.82533333 Z M3.00733333,3.33333333 L8.04066667,7.77466667 L13.0013333,3.33333333 L3.00733333,3.33333333 Z" id="Shape" fill="#000000" fill-rule="nonzero"></path>
                </g>
            </g>
        </g>
    </g>
</svg>