<?xml version="1.0" encoding="UTF-8"?>
<svg width="12px" height="12px" viewBox="0 0 12 12" version="1.1" xmlns="http://www.w3.org/2000/svg" xmlns:xlink="http://www.w3.org/1999/xlink">
    <!-- Generator: sketchtool 60.1 (101010) - https://sketch.com -->
    <title>BEB08F57-4D3D-4266-9A16-CB9E3B031B4F</title>
    <desc>Created with sketchtool.</desc>
    <g id="Page-1" stroke="none" stroke-width="1" fill="none" fill-rule="evenodd">
        <g id="02.0---Home" transform="translate(-152.000000, -486.000000)">
            <g id="Afonso" transform="translate(130.000000, 220.000000)">
                <g id="phone-line" transform="translate(20.000000, 264.000000)">
                    <polygon id="Path" points="0 0 16 0 16 16 0 16"></polygon>
                    <path d="M6.244,7.12133333 C6.86955726,8.22031881 7.77968119,9.13044274 8.87866667,9.756 L9.468,8.93066667 C9.66414638,8.65600245 10.034617,8.57125801 10.3306667,8.73333333 C11.2735468,9.24861644 12.3148051,9.55851742 13.386,9.64266667 C13.7327105,9.67014267 14,9.95953584 14,10.3073333 L14,13.282 C14,13.6239158 13.7414658,13.9104579 13.4013333,13.9453333 C13.048,13.982 12.692,14 12.3333333,14 C6.62666667,14 2,9.37333333 2,3.66666667 C2,3.308 2.018,2.952 2.05466667,2.59866667 C2.08954207,2.25853418 2.37608423,1.99999998 2.718,1.99999998 L5.69266667,1.99999998 C6.04046416,1.99999998 6.32985733,2.2672895 6.35733333,2.614 C6.44148258,3.68519495 6.75138356,4.72645316 7.26666667,5.66933333 C7.42874199,5.96538304 7.34399755,6.33585362 7.06933333,6.532 L6.244,7.12133333 Z M4.56266667,6.68333333 L5.82933333,5.77866667 C5.46985506,5.00272899 5.22356789,4.1792273 5.098,3.33333333 L3.34,3.33333333 C3.336,3.444 3.334,3.55533333 3.334,3.66666667 C3.33333333,8.63733333 7.36266667,12.6666667 12.3333333,12.6666667 C12.4446667,12.6666667 12.556,12.6646667 12.6666667,12.66 L12.6666667,10.902 C11.8207727,10.7764321 10.997271,10.5301449 10.2213333,10.1706667 L9.31666667,11.4373333 C8.95244103,11.2958111 8.59867109,11.1287284 8.258,10.9373333 L8.21933333,10.9153333 C6.91171912,10.1711463 5.82885368,9.08828088 5.08466667,7.78066667 L5.06266667,7.742 C4.87127164,7.40132891 4.70418887,7.04755897 4.56266667,6.68333333 L4.56266667,6.68333333 Z" id="Shape" fill="#000000" fill-rule="nonzero"></path>
                </g>
            </g>
        </g>
    </g>
</svg>